<?xml version="1.0" encoding="iso-8859-1"?>
<!-- Generator: Adobe Illustrator 19.0.0, SVG Export Plug-In . SVG Version: 6.00 Build 0)  -->
<svg version="1.1" id="Capa_1" xmlns="http://www.w3.org/2000/svg" xmlns:xlink="http://www.w3.org/1999/xlink" x="0px" y="0px"
	 viewBox="0 0 480.003 480.003" style="enable-background:new 0 0 480.003 480.003;" xml:space="preserve">
<g>
	<ellipse style="fill:#78B9EB;" cx="252.001" cy="104.003" rx="40" ry="32"/>
	<path style="fill:#78B9EB;" d="M332.001,232.003v96l56,16v-88L332.001,232.003z"/>
	<path style="fill:#78B9EB;" d="M116.001,256.003v88l56-16v-96L116.001,256.003z"/>
</g>
<g>
	<path style="fill:#1E81CE;" d="M244.001,368.003h16v16h-16V368.003z"/>
	<path style="fill:#1E81CE;" d="M276.001,368.003h16v16h-16V368.003z"/>
	<path style="fill:#1E81CE;" d="M308.001,368.003h16v16h-16V368.003z"/>
	<path style="fill:#1E81CE;" d="M308.001,400.003h16v16h-16V400.003z"/>
	<path style="fill:#1E81CE;" d="M276.001,400.003h16v16h-16V400.003z"/>
	<path style="fill:#1E81CE;" d="M276.001,432.003h16v16h-16V432.003z"/>
	<path style="fill:#1E81CE;" d="M212.001,368.003h16v16h-16V368.003z"/>
	<path style="fill:#1E81CE;" d="M180.001,368.003h16v16h-16V368.003z"/>
	<path style="fill:#1E81CE;" d="M180.001,400.003h16v16h-16V400.003z"/>
	<path style="fill:#1E81CE;" d="M212.001,400.003h16v16h-16V400.003z"/>
	<path style="fill:#1E81CE;" d="M212.001,432.003h16v16h-16V432.003z"/>
	<path style="fill:#1E81CE;" d="M244.001,400.003h16v16h-16V400.003z"/>
	<path style="fill:#1E81CE;" d="M244.001,432.003h16v16h-16V432.003z"/>
	<path style="fill:#1E81CE;" d="M244.001,464.003h16v16h-16V464.003z"/>
	<path style="fill:#1E81CE;" d="M252.001,64.003c-26.472,0-48,17.944-48,40s21.528,40,48,40s48-17.944,48-40
		S278.473,64.003,252.001,64.003z M252.001,128.003c-17.648,0-32-10.768-32-24s14.352-24,32-24s32,10.768,32,24
		S269.65,128.003,252.001,128.003z"/>
	<path style="fill:#1E81CE;" d="M391.154,248.651l-51.152-21.92V72.003c0.001-2.43-1.103-4.729-3-6.248l-80-64
		c-2.923-2.34-7.077-2.34-10,0l-80,64c-1.897,1.519-3.001,3.818-3,6.248v154.728l-51.152,21.92
		c-2.941,1.261-4.848,4.152-4.848,7.352v88c0,4.418,3.582,8,8,8c0.742,0,1.48-0.105,2.192-0.312l45.808-13.08v5.392
		c0,4.418,3.582,8,8,8h160c4.418,0,8-3.582,8-8v-5.392l45.808,13.08c0.712,0.207,1.45,0.312,2.192,0.312c4.418,0,8-3.582,8-8v-88
		C396.001,252.803,394.094,249.912,391.154,248.651L391.154,248.651z M124.001,333.395v-72.12l40-17.136v77.832L124.001,333.395z
		 M324.001,336.003h-144V75.843l72-57.6l72,57.6V336.003z M380.001,333.395l-40-11.424v-77.832l40,17.136V333.395z"/>
	<path style="fill:#1E81CE;" d="M292.001,304.003h16v16h-16V304.003z"/>
	<path style="fill:#1E81CE;" d="M260.001,304.003h16v16h-16V304.003z"/>
	<path style="fill:#1E81CE;" d="M140.001,296.003h16v16h-16V296.003z"/>
	<path style="fill:#1E81CE;" d="M68.001,48.003h16v16h-16V48.003z"/>
	<path style="fill:#1E81CE;" d="M84.001,64.003h16v16h-16V64.003z"/>
	<path style="fill:#1E81CE;" d="M68.001,80.003h16v16h-16V80.003z"/>
	<path style="fill:#1E81CE;" d="M52.001,64.003h16v16h-16V64.003z"/>
	<path style="fill:#1E81CE;" d="M396.001,40.003h16v16h-16V40.003z"/>
	<path style="fill:#1E81CE;" d="M412.001,56.003h16v16h-16V56.003z"/>
	<path style="fill:#1E81CE;" d="M396.001,72.003h16v16h-16V72.003z"/>
	<path style="fill:#1E81CE;" d="M380.001,56.003h16v16h-16V56.003z"/>
	<path style="fill:#1E81CE;" d="M388.001,168.003h16v16h-16V168.003z"/>
	<path style="fill:#1E81CE;" d="M404.001,184.003h16v16h-16V184.003z"/>
	<path style="fill:#1E81CE;" d="M388.001,200.003h16v16h-16V200.003z"/>
	<path style="fill:#1E81CE;" d="M372.001,184.003h16v16h-16V184.003z"/>
	<path style="fill:#1E81CE;" d="M92.001,144.003h16v16h-16V144.003z"/>
	<path style="fill:#1E81CE;" d="M108.001,160.003h16v16h-16V160.003z"/>
	<path style="fill:#1E81CE;" d="M92.001,176.003h16v16h-16V176.003z"/>
	<path style="fill:#1E81CE;" d="M76.001,160.003h16v16h-16V160.003z"/>
	<path style="fill:#1E81CE;" d="M348.001,296.003h16v16h-16V296.003z"/>
	<path style="fill:#1E81CE;" d="M244.001,160.003h16v128h-16V160.003z"/>
</g>
<g>
</g>
<g>
</g>
<g>
</g>
<g>
</g>
<g>
</g>
<g>
</g>
<g>
</g>
<g>
</g>
<g>
</g>
<g>
</g>
<g>
</g>
<g>
</g>
<g>
</g>
<g>
</g>
<g>
</g>
</svg>
