<?xml version="1.0" encoding="iso-8859-1"?>
<!-- Generator: Adobe Illustrator 19.0.0, SVG Export Plug-In . SVG Version: 6.00 Build 0)  -->
<svg version="1.1" id="Capa_1" xmlns="http://www.w3.org/2000/svg" xmlns:xlink="http://www.w3.org/1999/xlink" x="0px" y="0px"
	 viewBox="0 0 480 480" style="enable-background:new 0 0 480 480;" xml:space="preserve">
<path style="fill:#78B9EB;" d="M388.687,70.656c-20.337-19.53-52.463-19.53-72.8,0l-12.136,11.8l-12.136-11.8
	c-20.388-19.403-52.412-19.403-72.8,0C147.095,138.464,303.727,224,303.727,224S461.815,139.832,388.687,70.656L388.687,70.656z"/>
<g>
	<path style="fill:#1E81CE;" d="M123.999,176c-11.046,0-20-8.954-20-20h-16c0,19.882,16.118,36,36,36s36-16.118,36-36h-16
		C143.999,167.046,135.045,176,123.999,176z"/>
	<path style="fill:#1E81CE;" d="M327.999,0H219.135C154.354,0.532,96.345,40.241,72.407,100.44l-56,169.048
		c-1.387,4.195,0.889,8.72,5.083,10.107C22.3,279.863,23.147,280,23.999,280h40v56c0.035,30.913,25.087,55.965,56,56h56v80
		c0,4.418,3.582,8,8,8h192c4.418,0,8-3.582,8-8v-80.36c45.288-4.191,79.946-42.159,80-87.64V136
		C463.916,60.924,403.075,0.084,327.999,0z M447.999,304c-0.044,39.746-32.254,71.956-72,72c-4.418,0-8,3.582-8,8v80h-176v-72h40
		v-16h-112c-22.08-0.026-39.974-17.92-40-40v-64c0-4.418-3.582-8-8-8h-36.92l52.312-157.984
		C108.973,52.058,161.024,16.493,219.135,16h108.864c66.243,0.075,119.925,53.757,120,120V304z"/>
	<path style="fill:#1E81CE;" d="M359.327,217.552l9.472,12.896c16.324-11.828,31.211-25.52,44.36-40.8l-12.2-10.304
		C388.617,193.658,374.645,206.481,359.327,217.552L359.327,217.552z"/>
	<path style="fill:#1E81CE;" d="M310.287,64.92l-6.552,6.4l-6.568-6.4c-23.397-22.566-60.448-22.601-83.888-0.08
		c-15.296,12.839-23.112,32.508-20.8,52.344c7.608,58.704,103.336,111.616,107.4,113.832c2.364,1.295,5.22,1.313,7.6,0.048
		c4.08-2.176,100-53.896,108-112.688c2.417-20.279-5.58-40.406-21.256-53.496C370.748,42.416,333.742,42.433,310.287,64.92z
		 M399.615,116.224c-6.016,44.736-78.304,88.576-95.832,98.592c-17.488-10.224-89.6-54.92-95.424-99.688
		c-1.612-14.754,4.385-29.316,15.92-38.656c8.42-7.92,19.553-12.314,31.112-12.28c11.408-0.08,22.396,4.298,30.624,12.2l12.144,11.8
		c3.105,3.018,8.047,3.018,11.152,0L321.447,76.4c17.234-16.523,44.43-16.523,61.664,0l0.072,0.08
		C395.088,86.053,401.284,101.039,399.615,116.224L399.615,116.224z"/>
	<path style="fill:#1E81CE;" d="M223.999,112h16c0-8.837,7.163-16,16-16V80C238.326,80,223.999,94.327,223.999,112z"/>
</g>
<g>
</g>
<g>
</g>
<g>
</g>
<g>
</g>
<g>
</g>
<g>
</g>
<g>
</g>
<g>
</g>
<g>
</g>
<g>
</g>
<g>
</g>
<g>
</g>
<g>
</g>
<g>
</g>
<g>
</g>
</svg>
